# xmcd CD database file
#
# Track frame offsets:
#	150
#	1648
#	15443
#	29011
#	41640
#	51326
#	63643
#	78140
#	91794
#	103956
#	120196
#	134132
#	149746
#	166281
#	182511
#
# Disc length: 2454 seconds
#
# Revision: 0
# Processed by: cddbd v1.5.2PL0 Copyright (c) Steve Scherf et al.
# Submitted via: CDex 1.51
#
DISCID=c409940f
DTITLE=Sébastien Patoche - J'emmerde Les Bobos
DYEAR=2013
DGENRE=Ambiance
TTITLE0=Intro
TTITLE1=Quand Il Pète Il Troue Son Slip
TTITLE2=La Cartouche
TTITLE3=Sébastien Patoche Présente Connection Béké - Zizicoptère
TTITLE4=Tu L'as Vu ?
TTITLE5=En Voiture Simone
TTITLE6=Le Panard (Ft. Léa Léonard)
TTITLE7=La Moustache Au Chocolat
TTITLE8=Emplacement N°10
TTITLE9=La Tournée Du Patron
TTITLE10=Shake Ton Slibard
TTITLE11=I Love Toi
TTITLE12=Quand Il Pète Il Troue Son Slip Part I
TTITLE13=Quand Il Pète Il Troue Son Slip Part II
TTITLE14=Outro
EXTD=YEAR: 2013
EXTT0=
EXTT1=
EXTT2=
EXTT3=
EXTT4=
EXTT5=
EXTT6=
EXTT7=
EXTT8=
EXTT9=
EXTT10=
EXTT11=
EXTT12=
EXTT13=
EXTT14=
PLAYORDER=
